<?xml version="1.0" encoding="UTF-8"?>
<svg xmlns="http://www.w3.org/2000/svg" viewBox="0 0 100 100">
  <title>Earthsites</title>
  <g fill="#000">
    <path d="M50 6
             C33 6 19 20 19 37
             C19 56 39 74 47 92
             C48.5 95.5 51.5 95.5 53 92
             C61 74 81 56 81 37
             C81 20 67 6 50 6Z"/>
    <circle cx="50" cy="36.5" r="14"/>
    <path d="M50 22.5
             C46.5 22.5 44.5 28.5 44.5 36.5
             C44.5 44.5 46.5 50.5 50 50.5
             C53.5 50.5 55.5 44.5 55.5 36.5
             C55.5 28.5 53.5 22.5 50 22.5Z"/>
    <path d="M36 36.5
             C40.5 34.2 45.1 33.2 50 33.2
             C54.9 33.2 59.5 34.2 64 36.5
             C59.5 38.8 54.9 39.8 50 39.8
             C45.1 39.8 40.5 38.8 36 36.5Z"/>
  </g>
</svg>